<?xml version="1.0" encoding="utf-8"?>
<!DOCTYPE svg PUBLIC "-//W3C//DTD SVG 1.1//EN" "http://www.w3.org/Graphics/SVG/1.1/DTD/svg11.dtd">
<svg style="width:308px;height:308px;" version="1.1" id="图形" xmlns="http://www.w3.org/2000/svg" xmlns:xlink="http://www.w3.org/1999/xlink" x="0px" y="0px" width="1000px" height="1000px" viewBox="0 0 1000 1000" enable-background="new 0 0 1000 1000" xml:space="preserve">
  <path class="svgpath" data-index="path_0" fill="#339966" d="M167.2615 323.8308c-10.2769 2.7846-11.2308 14-11.2308 14 0 5.7231 0.9538 10.1231 9.4615 14.7077 8.5692 4.6 20.2154-4.5846 20.2154-13.0615C185.7077 331.0308 177.4462 320.9846 167.2615 323.8308zM952.4615 425.9538c-15.6-8.7846-66.6154-17.9846-113.4615-5.5231-0.0308 0.0308-0.0923 0.0308-0.1538 0.0308-0.0308 0-0.0923 0.0308-0.1538 0.0308-46.6923 12.3077-75.0923-13.6154-75.0923-13.6154C621.5385 255.9385 502.7692 199.6154 424.9077 179.5077c-4.3231-1.0923-8.4769-2.1077-12.5231-2.9692-24.2462-5.6462-49.4615-8.8308-75.3846-8.8308-91.8154 0-174.9077 37.2-235 97.3692-6.7846-5.8615-15.8-9.0154-25.7538-6.3385-21.1846 5.8769-23.1692 28.8462-23.1692 28.8462 0 9.2 1.2923 16.6769 10.2154 23.9538-17.2154 25.0615-31.0769 52.4-40.9846 81.7231-1.4462 6-4.7538 26.7385 17.0308 31.1077 32.4154 6.4615 49.0462 9.9077 53.0923 22.3385 3.5231 10.8615 0.3846 27.2769-19.2923 29-10.8462 0.9538-44.1692-10.5846-56.1538-37.9846-4.0308-4.0308-6.0462-0.3846-6.5846 0.9538-3.6923 19.8308-5.7077 40.3538-5.7077 61.2769C4.6923 683.5385 153.4308 832.3077 336.9846 832.3077c132.3077 0 246.4769-77.3385 300-189.2462 10.6-22.2923 18.7538-45.9077 24.2462-70.5846 1.3231-6.0769 2.5538-12.2 3.5692-18.3846 4.7846-19.8615 13.4-34.6769 43.0923-43.7846 66.3692-20.2462 64.0923 85.4923 98.9538 143.9538s81.0154 90.1692 112.4462 56.4308c31.5538-33.7077 70.4615-181.2769 70.4615-181.2769C1005.8923 470.3692 984.7692 440.1538 952.4615 425.9538zM155.7538 359.5077c-19.7385-10.6308-21.9385-20.7846-21.9385-34.0462 0 0 2.2-25.8462 25.8154-32.3692 23.6462-6.5385 42.7538 16.6923 42.7538 36.2154C202.3846 348.8769 175.4615 370.1231 155.7538 359.5077z" />

</svg>
